<?xml version="1.0" encoding="utf-8"?>
<!-- Generator: Adobe Illustrator 25.0.1, SVG Export Plug-In . SVG Version: 6.00 Build 0)  -->
<svg version="1.0" id="Layer_1" xmlns="http://www.w3.org/2000/svg" xmlns:xlink="http://www.w3.org/1999/xlink" x="0px" y="0px"
	 width="100px" height="100px" viewBox="0 0 100 100" enable-background="new 0 0 100 100" xml:space="preserve">
<path fill="#EC312E" d="M50,9.1C27.4,9.1,9.1,27.4,9.1,50S27.4,90.9,50,90.9S90.9,72.6,90.9,50S72.6,9.1,50,9.1z M72.1,71.4
	c-0.9,0.4-2.2,0.6-3.2,0.1L43.2,57.3l18.2,0L50.1,32L33.5,69.4c-0.9,2.1-2.8,2.9-5.1,2.2c-2.9-1-3.1-3.4-2.2-5.4l18.4-41.5
	c0,0,0,0,0,0c1-2.2,3.2-3.6,5.6-3.5c2.4,0,4.5,1.5,5.4,3.6l18.5,41.4C75,68.1,74.1,70.5,72.1,71.4z"/>
</svg>
